<svg width="30" height="30" viewBox="0 0 30 30" fill="none" xmlns="http://www.w3.org/2000/svg">
<path d="M14.62 29.24C22.6944 29.24 29.24 22.6944 29.24 14.62C29.24 6.5456 22.6944 0 14.62 0C6.5456 0 0 6.5456 0 14.62C0 22.6944 6.5456 29.24 14.62 29.24Z" fill="black"/>
<path d="M8.49074 11.8999H11.3207V20.9999H8.49074V11.8999ZM9.90074 7.37988C10.8107 7.37988 11.5407 8.10988 11.5407 9.01988C11.5407 9.91988 10.8107 10.6599 9.90074 10.6599C8.99074 10.6599 8.26074 9.91988 8.26074 9.01988C8.26074 8.10988 9.00074 7.37988 9.90074 7.37988Z" fill="white"/>
<path d="M13.0901 11.8999H15.8001V13.1399H15.8401C16.2201 12.4199 17.1401 11.6699 18.5201 11.6699C21.3801 11.6699 21.9101 13.5499 21.9101 15.9999V20.9899H19.0801V16.5699C19.0801 15.5099 19.0601 14.1599 17.6101 14.1599C16.1401 14.1599 15.9101 15.3099 15.9101 16.4999V20.9999H13.0801V11.8999H13.0901Z" fill="white"/>
</svg>
