<svg width="182" height="34" viewBox="0 0 182 34" fill="none" xmlns="http://www.w3.org/2000/svg">
<path d="M13.755 20.765H4.89V17.69H13.755V20.765ZM8.865 8.405H9.795L3.585 26H0.135L7.62 5H11.025L18.525 26H15.06L8.865 8.405ZM24.6328 26.3C23.5328 26.3 22.5728 26.185 21.7528 25.955C20.9328 25.715 20.2078 25.44 19.5778 25.13L19.9078 22.145C20.5078 22.535 21.1928 22.885 21.9628 23.195C22.7328 23.495 23.5828 23.645 24.5128 23.645C25.3328 23.645 25.9578 23.515 26.3878 23.255C26.8178 22.985 27.0328 22.575 27.0328 22.025C27.0328 21.595 26.9078 21.245 26.6578 20.975C26.4078 20.695 26.0678 20.46 25.6378 20.27C25.2178 20.07 24.7428 19.88 24.2128 19.7C23.3828 19.42 22.6328 19.105 21.9628 18.755C21.2928 18.395 20.7578 17.935 20.3578 17.375C19.9678 16.815 19.7728 16.09 19.7728 15.2C19.7728 14.38 19.9828 13.64 20.4028 12.98C20.8228 12.31 21.4428 11.78 22.2628 11.39C23.0828 11 24.1028 10.805 25.3228 10.805C26.2828 10.805 27.1128 10.91 27.8128 11.12C28.5228 11.33 29.1628 11.59 29.7328 11.9L29.4028 14.825C28.8128 14.395 28.1978 14.04 27.5578 13.76C26.9178 13.47 26.1928 13.325 25.3828 13.325C24.6628 13.325 24.0928 13.465 23.6728 13.745C23.2628 14.025 23.0578 14.44 23.0578 14.99C23.0578 15.61 23.3178 16.065 23.8378 16.355C24.3578 16.645 25.1678 16.99 26.2678 17.39C26.8478 17.6 27.3878 17.83 27.8878 18.08C28.3878 18.33 28.8278 18.625 29.2078 18.965C29.5878 19.305 29.8828 19.71 30.0928 20.18C30.3028 20.65 30.4078 21.21 30.4078 21.86C30.4078 22.7 30.2078 23.455 29.8078 24.125C29.4078 24.795 28.7828 25.325 27.9328 25.715C27.0828 26.105 25.9828 26.3 24.6328 26.3ZM32.9705 26V3.5H36.3155V17.435L41.2505 11.105H45.1205L39.5105 18.185L45.2555 26H41.3705L36.3155 19.04V26H32.9705Z" fill="#F9FAFB"/>
<path d="M47.5744 26V5H60.7894V8.3H51.1144V13.385H58.6894V16.685H51.1144V22.7H61.0744V26H47.5744ZM62.4537 26L67.4787 18.56L62.4987 11.105H66.4137L69.5037 15.995L72.3387 11.105H76.3137L71.3787 18.485L76.3737 26H72.4437L69.3537 21.125L66.3837 26H62.4537ZM78.4692 33.26V11.105H81.1392L81.7842 13.91L80.7942 13.475C81.4642 12.675 82.2192 12.04 83.0592 11.57C83.9092 11.09 84.9442 10.85 86.1642 10.85C87.5942 10.85 88.7992 11.2 89.7792 11.9C90.7692 12.6 91.5192 13.535 92.0292 14.705C92.5392 15.875 92.7942 17.165 92.7942 18.575C92.7942 19.985 92.5442 21.275 92.0442 22.445C91.5442 23.615 90.8042 24.55 89.8242 25.25C88.8442 25.95 87.6242 26.3 86.1642 26.3C84.9942 26.3 84.0042 26.11 83.1942 25.73C82.3942 25.35 81.6792 24.76 81.0492 23.96L81.8142 23.285V33.26H78.4692ZM85.6242 23.48C86.8042 23.48 87.7242 23.035 88.3842 22.145C89.0442 21.245 89.3742 20.055 89.3742 18.575C89.3742 17.085 89.0442 15.895 88.3842 15.005C87.7242 14.115 86.8042 13.67 85.6242 13.67C84.7842 13.67 84.0642 13.87 83.4642 14.27C82.8742 14.66 82.4242 15.22 82.1142 15.95C81.8042 16.68 81.6492 17.555 81.6492 18.575C81.6492 19.615 81.8042 20.5 82.1142 21.23C82.4242 21.96 82.8742 22.52 83.4642 22.91C84.0642 23.29 84.7842 23.48 85.6242 23.48ZM102.631 26.3C100.851 26.3 99.3614 25.94 98.1614 25.22C96.9714 24.5 96.0714 23.55 95.4614 22.37C94.8614 21.18 94.5614 19.875 94.5614 18.455C94.5614 17.085 94.8414 15.825 95.4014 14.675C95.9714 13.515 96.7964 12.59 97.8764 11.9C98.9664 11.2 100.286 10.85 101.836 10.85C103.196 10.85 104.356 11.125 105.316 11.675C106.276 12.225 107.006 12.985 107.506 13.955C108.016 14.915 108.271 16.015 108.271 17.255C108.271 17.535 108.251 17.83 108.211 18.14C108.181 18.44 108.136 18.75 108.076 19.07H98.0264C98.1664 20.16 98.4714 21.025 98.9414 21.665C99.4114 22.305 99.9964 22.77 100.696 23.06C101.396 23.34 102.151 23.48 102.961 23.48C103.761 23.48 104.531 23.385 105.271 23.195C106.021 22.995 106.716 22.725 107.356 22.385L107.611 25.16C107.041 25.44 106.336 25.7 105.496 25.94C104.656 26.18 103.701 26.3 102.631 26.3ZM98.1764 16.79H104.851C104.851 16.25 104.746 15.745 104.536 15.275C104.336 14.795 104.011 14.41 103.561 14.12C103.121 13.82 102.541 13.67 101.821 13.67C100.771 13.67 99.9514 13.955 99.3614 14.525C98.7814 15.095 98.3864 15.85 98.1764 16.79ZM110.872 26V11.105H113.902L114.067 13.01C114.587 12.4 115.192 11.88 115.882 11.45C116.572 11.02 117.317 10.805 118.117 10.805C118.357 10.805 118.582 10.83 118.792 10.88L118.522 14.285C118.332 14.235 118.142 14.205 117.952 14.195C117.762 14.175 117.567 14.165 117.367 14.165C116.687 14.165 116.062 14.32 115.492 14.63C114.922 14.94 114.522 15.3 114.292 15.71V26H110.872ZM125.592 26.3C124.652 26.3 123.892 26.115 123.312 25.745C122.732 25.375 122.307 24.905 122.037 24.335C121.767 23.755 121.632 23.15 121.632 22.52V13.82H119.352L119.652 11.105H121.632V7.685L124.977 7.34V11.105H128.487V13.82H124.977V20.945C124.977 21.775 125.027 22.375 125.127 22.745C125.227 23.105 125.457 23.335 125.817 23.435C126.177 23.525 126.757 23.57 127.557 23.57H128.457L128.172 26.3H125.592ZM135.111 26.3C134.011 26.3 133.051 26.185 132.231 25.955C131.411 25.715 130.686 25.44 130.056 25.13L130.386 22.145C130.986 22.535 131.671 22.885 132.441 23.195C133.211 23.495 134.061 23.645 134.991 23.645C135.811 23.645 136.436 23.515 136.866 23.255C137.296 22.985 137.511 22.575 137.511 22.025C137.511 21.595 137.386 21.245 137.136 20.975C136.886 20.695 136.546 20.46 136.116 20.27C135.696 20.07 135.221 19.88 134.691 19.7C133.861 19.42 133.111 19.105 132.441 18.755C131.771 18.395 131.236 17.935 130.836 17.375C130.446 16.815 130.251 16.09 130.251 15.2C130.251 14.38 130.461 13.64 130.881 12.98C131.301 12.31 131.921 11.78 132.741 11.39C133.561 11 134.581 10.805 135.801 10.805C136.761 10.805 137.591 10.91 138.291 11.12C139.001 11.33 139.641 11.59 140.211 11.9L139.881 14.825C139.291 14.395 138.676 14.04 138.036 13.76C137.396 13.47 136.671 13.325 135.861 13.325C135.141 13.325 134.571 13.465 134.151 13.745C133.741 14.025 133.536 14.44 133.536 14.99C133.536 15.61 133.796 16.065 134.316 16.355C134.836 16.645 135.646 16.99 136.746 17.39C137.326 17.6 137.866 17.83 138.366 18.08C138.866 18.33 139.306 18.625 139.686 18.965C140.066 19.305 140.361 19.71 140.571 20.18C140.781 20.65 140.886 21.21 140.886 21.86C140.886 22.7 140.686 23.455 140.286 24.125C139.886 24.795 139.261 25.325 138.411 25.715C137.561 26.105 136.461 26.3 135.111 26.3Z" fill="#FFCC4A"/>
</svg>
