<svg width="30" height="30" viewBox="0 0 30 30" fill="none" xmlns="http://www.w3.org/2000/svg">
<path d="M14.62 29.24C22.6944 29.24 29.24 22.6944 29.24 14.62C29.24 6.5456 22.6944 0 14.62 0C6.5456 0 0 6.5456 0 14.62C0 22.6944 6.5456 29.24 14.62 29.24Z" fill="black"/>
<path d="M22.6998 9.61011C22.1898 9.84011 21.6298 9.98011 21.0898 10.0701C21.3498 10.0301 21.7298 9.56011 21.8798 9.37011C22.1098 9.08011 22.3098 8.75011 22.4198 8.39011C22.4298 8.36011 22.4398 8.33011 22.4198 8.31011C22.3798 8.30011 22.3598 8.30011 22.3298 8.32011C21.7198 8.65011 21.0898 8.88011 20.4198 9.05011C20.3598 9.06011 20.3198 9.05011 20.2898 9.02011C20.2298 8.96011 20.1798 8.90011 20.1198 8.85011C19.8398 8.61011 19.5398 8.42011 19.1898 8.28011C18.7398 8.10011 18.2498 8.02011 17.7698 8.05011C17.2998 8.08011 16.8398 8.21011 16.4198 8.43011C15.9998 8.65011 15.6298 8.95011 15.3298 9.32011C15.0198 9.70011 14.7998 10.1501 14.6798 10.6201C14.5698 11.0801 14.5798 11.5301 14.6498 11.9901C14.6598 12.0701 14.6498 12.0801 14.5798 12.0701C11.9498 11.6801 9.77982 10.7401 8.00982 8.73011C7.92982 8.64011 7.88982 8.64011 7.82982 8.74011C7.05982 9.90011 7.42982 11.7601 8.39982 12.6801C8.52982 12.8001 8.65982 12.9201 8.79982 13.0401C8.74982 13.0501 8.10983 12.9801 7.52983 12.6801C7.44983 12.6301 7.40982 12.6601 7.40982 12.7501C7.39982 12.8801 7.40982 12.9901 7.42982 13.1301C7.57982 14.3001 8.38982 15.3901 9.50982 15.8201C9.63982 15.8801 9.78982 15.9201 9.92982 15.9501C9.67982 16.0101 9.40982 16.0501 8.68982 15.9901C8.59982 15.9701 8.55983 16.0201 8.59983 16.1001C9.14983 17.5901 10.3298 18.0401 11.2098 18.2901C11.3298 18.3101 11.4498 18.3101 11.5698 18.3401C11.5598 18.3501 11.5598 18.3501 11.5498 18.3601C11.2598 18.8101 10.2398 19.1401 9.76982 19.3101C8.90982 19.6101 7.96983 19.7501 7.05983 19.6601C6.90983 19.6401 6.87982 19.6401 6.83982 19.6601C6.79982 19.6801 6.82983 19.7201 6.87983 19.7601C7.05983 19.8801 7.24982 19.9901 7.43982 20.0901C8.01982 20.4001 8.61982 20.6401 9.24982 20.8101C12.5098 21.7101 16.1698 21.0501 18.6198 18.6201C20.5398 16.7101 21.2098 14.0801 21.2098 11.4501C21.2098 11.3501 21.3298 11.2901 21.3998 11.2401C21.8998 10.8601 22.2998 10.4201 22.6698 9.91011C22.7498 9.80011 22.7498 9.70011 22.7498 9.66011C22.7498 9.65011 22.7498 9.65011 22.7498 9.65011C22.7698 9.57011 22.7698 9.58011 22.6998 9.61011Z" fill="white"/>
</svg>
